<svg width="52" height="52" viewBox="0 0 52 52" fill="none" xmlns="http://www.w3.org/2000/svg">
<path d="M26 34.7011C25.2755 34.7011 24.6875 34.1131 24.6875 33.3886V22.0137C24.6875 21.2892 25.2755 20.7012 26 20.7012C26.7245 20.7012 27.3125 21.2892 27.3125 22.0137V33.3886C27.3125 34.1131 26.7245 34.7011 26 34.7011Z" fill="#6AD7FA"/>
<path d="M20.3125 31.2011C19.588 31.2011 19 30.6131 19 29.8886V25.5137C19 24.7892 19.588 24.2012 20.3125 24.2012C21.037 24.2012 21.625 24.7892 21.625 25.5137V29.8886C21.625 30.6131 21.037 31.2011 20.3125 31.2011Z" fill="#6AD7FA"/>
<path d="M31.6865 31.2011C30.962 31.2011 30.374 30.6131 30.374 29.8886V25.5137C30.374 24.7892 30.962 24.2012 31.6865 24.2012C32.411 24.2012 32.999 24.7892 32.999 25.5137V29.8886C32.999 30.6131 32.411 31.2011 31.6865 31.2011Z" fill="#6AD7FA"/>
<path d="M12.6222 22.4529C11.7839 22.4529 10.9562 22.1274 10.3297 21.5026L5.94247 17.1137C5.30197 16.4732 4.96598 15.6209 5.00273 14.7109C5.03773 13.7887 5.46472 12.9102 6.17522 12.2994C17.5449 2.56948 34.6003 2.56773 45.844 12.2889C46.5388 12.8892 46.9605 13.7554 46.9972 14.6654C47.034 15.5719 46.7015 16.4259 46.0645 17.0734L41.8085 21.3906C40.7428 22.4581 39.103 22.6629 37.8273 21.8964L33.3753 19.2346C32.2466 18.5609 31.6428 17.2852 31.8318 15.9832L32.2291 13.2759C28.2531 12.1612 23.9674 12.1507 19.9424 13.2462L20.3326 16.0409C20.5129 17.3377 19.9021 18.6134 18.7787 19.2906L14.3074 21.9821C13.7842 22.2989 13.2014 22.4529 12.6222 22.4529ZM26.0621 7.61646C19.5784 7.61646 13.0807 9.84069 7.88146 14.2909C7.72746 14.4274 7.63296 14.6164 7.62421 14.8124C7.62071 14.9314 7.64696 15.1064 7.79921 15.2587L12.1882 19.6476C12.3894 19.8489 12.7097 19.8821 12.9547 19.7351L17.4242 17.0419C17.6464 16.9089 17.7672 16.6569 17.7322 16.4032L17.1862 12.4919C17.0987 11.8619 17.4767 11.2582 18.0822 11.0622C23.2866 9.3787 28.9776 9.39445 34.1051 11.1094C34.7088 11.3089 35.0816 11.9144 34.9888 12.5427L34.4306 16.3647C34.3938 16.6149 34.5093 16.8564 34.7228 16.9842L39.1748 19.6459C39.425 19.7929 39.74 19.7509 39.9465 19.5426L44.1955 15.2324C44.353 15.0732 44.3793 14.8947 44.3758 14.7722C44.367 14.5832 44.2795 14.4047 44.129 14.2752C38.9945 9.83719 32.5353 7.61646 26.0621 7.61646Z" fill="#D7D8E1"/>
<path d="M12.001 38.2011C10.0707 38.2011 8.50098 36.6314 8.50098 34.7011C8.50098 32.7709 10.0707 31.2012 12.001 31.2012C13.9312 31.2012 15.5009 32.7709 15.5009 34.7011C15.5009 36.6314 13.9312 38.2011 12.001 38.2011ZM12.001 33.8262C11.5197 33.8262 11.126 34.2199 11.126 34.7011C11.126 35.1824 11.5197 35.5761 12.001 35.5761C12.4822 35.5761 12.876 35.1824 12.876 34.7011C12.876 34.2199 12.4822 33.8262 12.001 33.8262Z" fill="#D7D8E1"/>
<path d="M17.6874 46.9509C16.9629 46.9509 16.3749 46.3629 16.3749 45.6384V44.7634C16.3749 43.5577 15.3932 42.5759 14.1875 42.5759H9.81247C8.60673 42.5759 7.62499 43.5577 7.62499 44.7634V45.6384C7.62499 46.3629 7.03699 46.9509 6.31249 46.9509C5.588 46.9509 5 46.3629 5 45.6384V44.7634C5 42.1087 7.15774 39.9509 9.81247 39.9509H14.1875C16.8422 39.9509 18.9999 42.1087 18.9999 44.7634V45.6384C18.9999 46.3629 18.4119 46.9509 17.6874 46.9509Z" fill="#D7D8E1"/>
<path d="M40 38.2011C38.0697 38.2011 36.5 36.6314 36.5 34.7011C36.5 32.7709 38.0697 31.2012 40 31.2012C41.9302 31.2012 43.5 32.7709 43.5 34.7011C43.5 36.6314 41.9302 38.2011 40 38.2011ZM40 33.8262C39.5187 33.8262 39.125 34.2199 39.125 34.7011C39.125 35.1824 39.5187 35.5761 40 35.5761C40.4812 35.5761 40.875 35.1824 40.875 34.7011C40.875 34.2199 40.4812 33.8262 40 33.8262Z" fill="#D7D8E1"/>
<path d="M45.6864 46.9509C44.9619 46.9509 44.374 46.3629 44.374 45.6384V44.7634C44.374 43.5577 43.3922 42.5759 42.1865 42.5759H37.8115C36.6058 42.5759 35.624 43.5577 35.624 44.7634V45.6384C35.624 46.3629 35.036 46.9509 34.3115 46.9509C33.587 46.9509 32.999 46.3629 32.999 45.6384V44.7634C32.999 42.1087 35.1568 39.9509 37.8115 39.9509H42.1865C44.8412 39.9509 46.9989 42.1087 46.9989 44.7634V45.6384C46.9989 46.3629 46.4109 46.9509 45.6864 46.9509Z" fill="#D7D8E1"/>
</svg>
