<svg width="42" height="42" viewBox="0 0 42 42" fill="none" xmlns="http://www.w3.org/2000/svg">
<g clip-path="url(#clip0)">
<path d="M30.626 42C24.354 42 19.251 36.897 19.251 30.625C19.251 24.353 24.354 19.25 30.626 19.25C36.898 19.25 42.001 24.353 42.001 30.625C42.001 36.897 36.898 42 30.626 42ZM30.626 21.875C25.8012 21.875 21.876 25.8002 21.876 30.625C21.876 35.4497 25.8012 39.375 30.626 39.375C35.4507 39.375 39.376 35.4497 39.376 30.625C39.376 25.8002 35.4507 21.875 30.626 21.875Z" fill="#6AD7FA"/>
<path d="M28.8755 34.9999C28.529 34.9999 28.193 34.8617 27.948 34.6149L24.448 31.1149C23.9353 30.6022 23.9353 29.7709 24.448 29.2582C24.9608 28.7454 25.792 28.7454 26.3048 29.2582L28.8143 31.7659L34.0153 25.8229C34.4948 25.2752 35.3225 25.2227 35.8685 25.6987C36.4145 26.1764 36.4688 27.0059 35.991 27.5502L29.866 34.5502C29.6245 34.8249 29.2815 34.9877 28.9193 34.9999C28.9053 34.9999 28.8895 34.9999 28.8755 34.9999Z" fill="#6AD7FA"/>
<path d="M14.875 36.7499C14.791 36.7499 14.707 36.7429 14.6248 36.7254C14.4778 36.6974 0 33.7067 0 17.3774V6.56241C0 6.01991 0.3325 5.53516 0.83825 5.33916L14.4008 0.0891582C14.7053 -0.0280918 15.043 -0.0280918 15.3475 0.0891582L28.91 5.33916C29.4175 5.53516 29.75 6.01991 29.75 6.56241V14.4374C29.75 15.1619 29.162 15.7499 28.4375 15.7499C27.713 15.7499 27.125 15.1619 27.125 14.4374V7.46191L14.875 2.72116L2.625 7.46191V17.3774C2.625 30.6669 13.1425 33.6874 14.896 34.0987H14.8995C15.61 33.9482 16.3013 34.4172 16.443 35.1294C16.5848 35.8399 16.1228 36.5312 15.4123 36.6729L15.0868 36.7324C15.0168 36.7447 14.9468 36.7499 14.875 36.7499Z" fill="#D7D8E1"/>
</g>
<defs>
<clipPath id="clip0">
<rect width="42" height="42" fill="white"/>
</clipPath>
</defs>
</svg>
