<svg width="52" height="52" viewBox="0 0 52 52" fill="none" xmlns="http://www.w3.org/2000/svg">
<path d="M43.9375 36H8.0625C6.37375 36 5 34.6262 5 32.9375V11.0625C5 9.37375 6.37375 8 8.0625 8H43.9375C45.6263 8 47 9.37375 47 11.0625V32.9375C47 34.6262 45.6263 36 43.9375 36ZM8.0625 10.625C7.821 10.625 7.625 10.821 7.625 11.0625V32.9375C7.625 33.179 7.821 33.375 8.0625 33.375H43.9375C44.179 33.375 44.375 33.179 44.375 32.9375V11.0625C44.375 10.821 44.179 10.625 43.9375 10.625H8.0625Z" fill="#D7D8E1"/>
<path d="M33.4365 43.0002H18.5615C17.837 43.0002 17.249 42.4122 17.249 41.6877C17.249 40.9632 17.837 40.3752 18.5615 40.3752H33.4365C34.161 40.3752 34.749 40.9632 34.749 41.6877C34.749 42.4122 34.161 43.0002 33.4365 43.0002Z" fill="#D7D8E1"/>
<path d="M26 43C25.2755 43 24.6875 42.412 24.6875 41.6875V34.6875C24.6875 33.963 25.2755 33.375 26 33.375C26.7245 33.375 27.3125 33.963 27.3125 34.6875V41.6875C27.3125 42.412 26.7245 43 26 43Z" fill="#D7D8E1"/>
<path d="M16.8121 29.0001C16.4761 29.0001 16.1401 28.8723 15.8846 28.6151C15.3718 28.1023 15.3718 27.2711 15.8846 26.7583L20.6428 22.0001L15.8846 17.2401C15.3718 16.7273 15.3718 15.8961 15.8846 15.3833C16.3973 14.8706 17.2286 14.8706 17.7413 15.3833L23.4288 21.0708C23.9416 21.5836 23.9416 22.4148 23.4288 22.9276L17.7413 28.6151C17.4841 28.8723 17.1481 29.0001 16.8121 29.0001Z" fill="#6AD7FA"/>
<path d="M35.1875 29H27.3125C26.588 29 26 28.412 26 27.6875C26 26.963 26.588 26.375 27.3125 26.375H35.1875C35.912 26.375 36.5 26.963 36.5 27.6875C36.5 28.412 35.912 29 35.1875 29Z" fill="#6AD7FA"/>
</svg>
