<svg width="52" height="52" viewBox="0 0 52 52" fill="none" xmlns="http://www.w3.org/2000/svg">
<path fill-rule="evenodd" clip-rule="evenodd" d="M4.33301 18.0616C4.33301 16.1133 4.97311 14.2102 6.18172 12.3627C6.47972 11.9072 7.10105 11.8208 7.53653 12.1475C7.97203 12.4741 8.05588 13.0898 7.76247 13.5483C6.76812 15.1024 6.30437 16.6036 6.30437 18.0616C6.30437 19.5196 6.76812 21.0208 7.76247 22.5748C8.05588 23.0335 7.97203 23.649 7.53653 23.9758C7.10105 24.3023 6.47972 24.2161 6.18172 23.7604C4.97311 21.9129 4.33301 20.0098 4.33301 18.0616Z" fill="#6AD7FA"/>
<path fill-rule="evenodd" clip-rule="evenodd" d="M8.27539 18.0615C8.27539 16.4627 8.85443 14.5815 10.2852 13.6169C10.7366 13.3126 11.3068 13.6023 11.479 14.1187C11.6511 14.6352 11.3483 15.2021 10.9989 15.6195C10.5421 16.165 10.2468 17.0253 10.2468 18.0615C10.2468 19.0976 10.5421 19.9579 10.9989 20.5034C11.3483 20.9208 11.6511 21.4877 11.479 22.0041C11.3069 22.5207 10.7366 22.8104 10.2852 22.5059C8.85441 21.5414 8.27539 19.6602 8.27539 18.0615Z" fill="#6AD7FA"/>
<path fill-rule="evenodd" clip-rule="evenodd" d="M47.6666 18.0616C47.6666 16.1133 47.0265 14.2102 45.818 12.3627C45.5198 11.9072 44.8984 11.8208 44.4629 12.1475C44.0274 12.4741 43.9438 13.0898 44.2372 13.5483C45.2315 15.1024 45.6951 16.6036 45.6951 18.0616C45.6951 19.5196 45.2315 21.0208 44.2372 22.5748C43.9438 23.0335 44.0274 23.649 44.4629 23.9758C44.8984 24.3023 45.5198 24.2161 45.818 23.7604C47.0265 21.9129 47.6666 20.0098 47.6666 18.0616Z" fill="#6AD7FA"/>
<path fill-rule="evenodd" clip-rule="evenodd" d="M43.724 18.0615C43.724 16.4627 43.1451 14.5815 41.7142 13.6169C41.2629 13.3126 40.6926 13.6023 40.5204 14.1187C40.3483 14.6352 40.651 15.2021 41.0005 15.6195C41.4572 16.165 41.7526 17.0253 41.7526 18.0615C41.7526 19.0976 41.4572 19.9579 41.0005 20.5034C40.651 20.9208 40.3483 21.4877 40.5204 22.0041C40.6926 22.5207 41.2629 22.8104 41.7142 22.5059C43.1451 21.5414 43.724 19.6602 43.724 18.0615Z" fill="#6AD7FA"/>
<path fill-rule="evenodd" clip-rule="evenodd" d="M15.166 10.8333C15.166 9.03832 16.6211 7.58325 18.416 7.58325H33.5827C35.3776 7.58325 36.8327 9.03832 36.8327 10.8333V41.1666C36.8327 42.9615 35.3776 44.4166 33.5827 44.4166H18.416C16.6211 44.4166 15.166 42.9615 15.166 41.1666V10.8333ZM18.416 9.74992C17.8177 9.74992 17.3327 10.2349 17.3327 10.8333V41.1666C17.3327 41.7648 17.8177 42.2499 18.416 42.2499H33.5827C34.1809 42.2499 34.666 41.7648 34.666 41.1666V10.8333C34.666 10.2349 34.1809 9.74992 33.5827 9.74992H18.416Z" fill="#D7D8E1"/>
<path fill-rule="evenodd" clip-rule="evenodd" d="M21.6664 10.1987L20.9004 9.43271L22.4325 7.90063L23.1984 8.66668H28.801L29.5671 7.90063L31.0992 9.43271L30.333 10.1987C29.9268 10.6051 29.3756 10.8333 28.801 10.8333H23.1984C22.6238 10.8333 22.0729 10.6051 21.6664 10.1987Z" fill="#D7D8E1"/>
</svg>
