<svg width="279" height="201" viewBox="0 0 279 201" fill="none" xmlns="http://www.w3.org/2000/svg">
<circle cx="2.5" cy="116.5" r="2.5" fill="#0A1247"/>
<circle cx="2.5" cy="88.5" r="2.5" fill="#0A1247"/>
<circle cx="30.5" cy="144.5" r="2.5" fill="#0A1247"/>
<circle cx="30.5" cy="116.5" r="2.5" fill="#0A1247"/>
<circle cx="30.5" cy="88.5" r="2.5" fill="#0A1247"/>
<circle cx="58.5" cy="116.5" r="2.5" fill="#0A1247"/>
<circle cx="58.5" cy="88.5" r="2.5" fill="#0A1247"/>
<circle cx="86.5" cy="116.5" r="2.5" fill="#0A1247"/>
<circle cx="86.5" cy="88.5" r="2.5" fill="#0A1247"/>
<circle cx="58.5" cy="172.5" r="2.5" fill="#0A1247"/>
<circle cx="85.5" cy="171.5" r="1.5" fill="#0A1247"/>
<circle cx="58.5" cy="144.5" r="2.5" fill="#0A1247"/>
<circle cx="85.5" cy="143.5" r="1.5" fill="#0A1247"/>
<circle cx="85.5" cy="199.5" r="1.5" fill="#0A1247"/>
<circle cx="29" cy="1" r="1" fill="#0A1247"/>
<circle cx="30" cy="58" r="2" fill="#0A1247"/>
<circle cx="29.5" cy="29.5" r="1.5" fill="#0A1247"/>
<circle r="2.5" transform="matrix(4.37114e-08 -1 -1 -4.37114e-08 248.5 87.5)" fill="#0A1247"/>
<circle r="2" transform="matrix(4.37114e-08 -1 -1 -4.37114e-08 166 88)" fill="#0A1247"/>
<circle r="2.5" transform="matrix(4.37114e-08 -1 -1 -4.37114e-08 220.5 87.5)" fill="#0A1247"/>
<circle r="1.5" transform="matrix(4.37114e-08 -1 -1 -4.37114e-08 138.5 88.5)" fill="#0A1247"/>
<circle r="2" transform="matrix(4.37114e-08 -1 -1 -4.37114e-08 277 60)" fill="#0A1247"/>
<circle r="2.5" transform="matrix(4.37114e-08 -1 -1 -4.37114e-08 220.5 59.5)" fill="#0A1247"/>
<circle r="2.5" transform="matrix(4.37114e-08 -1 -1 -4.37114e-08 248.5 59.5)" fill="#0A1247"/>
<circle r="2" transform="matrix(4.37114e-08 -1 -1 -4.37114e-08 249 116)" fill="#0A1247"/>
<circle r="1.5" transform="matrix(4.37114e-08 -1 -1 -4.37114e-08 249.5 144.5)" fill="#0A1247"/>
<circle r="2.5" transform="matrix(4.37114e-08 -1 -1 -4.37114e-08 192.5 87.5)" fill="#0A1247"/>
<circle r="1" transform="matrix(4.37114e-08 -1 -1 -4.37114e-08 111 89)" fill="#0A1247"/>
<circle r="2" transform="matrix(4.37114e-08 -1 -1 -4.37114e-08 193 60)" fill="#0A1247"/>
</svg>
