<svg width="334" height="169" viewBox="0 0 334 169" fill="none" xmlns="http://www.w3.org/2000/svg">
<circle cx="85.5" cy="2.5" r="2.5" transform="rotate(90 85.5 2.5)" fill="#6AD7FA"/>
<circle cx="113.5" cy="2.5" r="2.5" transform="rotate(90 113.5 2.5)" fill="#6AD7FA"/>
<circle cx="57.5" cy="30.5" r="2.5" transform="rotate(90 57.5 30.5)" fill="#6AD7FA"/>
<circle cx="85.5" cy="30.5" r="2.5" transform="rotate(90 85.5 30.5)" fill="#6AD7FA"/>
<circle cx="113.5" cy="30.5" r="2.5" transform="rotate(90 113.5 30.5)" fill="#6AD7FA"/>
<circle cx="85.5" cy="58.5" r="2.5" transform="rotate(90 85.5 58.5)" fill="#6AD7FA"/>
<circle cx="113.5" cy="58.5" r="2.5" transform="rotate(90 113.5 58.5)" fill="#6AD7FA"/>
<circle cx="85.5" cy="86.5" r="2.5" transform="rotate(90 85.5 86.5)" fill="#6AD7FA"/>
<circle cx="113.5" cy="86.5" r="2.5" transform="rotate(90 113.5 86.5)" fill="#6AD7FA"/>
<circle cx="2.5" cy="29.5" r="1.5" transform="rotate(90 2.5 29.5)" fill="#6AD7FA"/>
<circle cx="29.5" cy="58.5" r="2.5" transform="rotate(90 29.5 58.5)" fill="#6AD7FA"/>
<circle cx="30.5" cy="85.5" r="1.5" transform="rotate(90 30.5 85.5)" fill="#6AD7FA"/>
<circle cx="29.5" cy="30.5" r="2.5" transform="rotate(90 29.5 30.5)" fill="#6AD7FA"/>
<circle cx="57.5" cy="58.5" r="2.5" transform="rotate(90 57.5 58.5)" fill="#6AD7FA"/>
<circle cx="58.5" cy="85.5" r="1.5" transform="rotate(90 58.5 85.5)" fill="#6AD7FA"/>
<circle cx="2" cy="58" r="2" transform="rotate(90 2 58)" fill="#6AD7FA"/>
<circle cx="2.5" cy="85.5" r="1.5" transform="rotate(90 2.5 85.5)" fill="#6AD7FA"/>
<circle cx="201" cy="29" r="1" transform="rotate(90 201 29)" fill="#6AD7FA"/>
<circle cx="144" cy="30" r="2" transform="rotate(90 144 30)" fill="#6AD7FA"/>
<circle cx="172.5" cy="29.5" r="1.5" transform="rotate(90 172.5 29.5)" fill="#6AD7FA"/>
<circle cx="303.5" cy="30.5" r="2.5" fill="#6AD7FA"/>
<circle cx="303" cy="113" r="2" fill="#6AD7FA"/>
<circle cx="303.5" cy="58.5" r="2.5" fill="#6AD7FA"/>
<circle cx="302.5" cy="140.5" r="1.5" fill="#6AD7FA"/>
<circle cx="331" cy="2" r="2" fill="#6AD7FA"/>
<circle cx="331.5" cy="58.5" r="2.5" fill="#6AD7FA"/>
<circle cx="331.5" cy="30.5" r="2.5" fill="#6AD7FA"/>
<circle cx="275" cy="30" r="2" fill="#6AD7FA"/>
<circle cx="246.5" cy="29.5" r="1.5" fill="#6AD7FA"/>
<circle cx="303.5" cy="86.5" r="2.5" fill="#6AD7FA"/>
<circle cx="302" cy="168" r="1" fill="#6AD7FA"/>
<circle cx="331" cy="86" r="2" fill="#6AD7FA"/>
</svg>
