<svg xmlns="http://www.w3.org/2000/svg" width="20" height="29" viewBox="0 0 20 29">
    <g fill="#317780" fill-rule="nonzero">
        <path d="M11.101 23.678a.93.93 0 0 0 .922-.938.93.93 0 0 0-.922-.937H9.258a.93.93 0 0 0-.922.937.93.93 0 0 0 .922.938h1.843z"/>
        <g transform="translate(6 8)">
            <ellipse cx=".922" cy=".938" rx="1" ry="1"/>
            <ellipse cx="7.88" cy=".938" rx="1" ry="1"/>
            <ellipse cx="4.378" cy=".938" rx="1" ry="1"/>
        </g>
        <g transform="translate(6 12)">
            <ellipse cx=".922" cy=".938" rx="1" ry="1"/>
            <ellipse cx="7.88" cy=".938" rx="1" ry="1"/>
            <ellipse cx="4.378" cy=".938" rx="1" ry="1"/>
        </g>
        <g transform="translate(6 17)">
            <ellipse cx=".922" cy=".938" rx="1" ry="1"/>
            <ellipse cx="7.88" cy=".938" rx="1" ry="1"/>
            <ellipse cx="4.378" cy=".938" rx="1" ry="1"/>
        </g>
        <path d="M18.87 17.962c-.624 0-1.13.507-1.13 1.133v5.374a2.265 2.265 0 0 1-2.26 2.265H4.52a2.265 2.265 0 0 1-2.26-2.265V4.53a2.265 2.265 0 0 1 2.26-2.265h.734c.624 0 1.13-.508 1.13-1.133C6.384.507 5.878 0 5.254 0H4.52C2.028 0 0 2.033 0 4.531V24.47C0 26.967 2.028 29 4.52 29h10.96c2.492 0 4.52-2.033 4.52-4.531v-5.374c0-.626-.506-1.133-1.13-1.133z"/>
        <g>
            <path d="M2.232 14.428V4.5c0-1.24 1.001-2.25 2.232-2.25H15.29c1.231 0 2.232 1.01 2.232 2.25 0 .621.5 1.125 1.116 1.125A1.12 1.12 0 0 0 19.754 4.5c0-2.481-2.002-4.5-4.464-4.5H4.464C2.003 0 0 2.019 0 4.5v9.787c0 3.338 2.232 3.432 2.232.141z"/>
        </g>
    </g>
</svg>
