<svg xmlns="http://www.w3.org/2000/svg" width="20" height="15" viewBox="0 0 20 15">
    <path fill="#317780" fill-rule="nonzero" d="M19.219 8.858A.773.773 0 0 0 20 8.093V3.08C20 1.392 18.598.02 16.875.02H3.125C1.402.02 0 1.391 0 3.08v8.84c0 1.688 1.402 3.06 3.125 3.06h13.75c1.723 0 3.125-1.372 3.125-3.06a.773.773 0 0 0-.781-.766.773.773 0 0 0-.782.766c0 .844-.7 1.53-1.562 1.53H3.125c-.862 0-1.563-.686-1.563-1.53V3.243L8.35 7.377a3.168 3.168 0 0 0 3.3 0l6.787-4.134v4.85c0 .423.35.765.782.765zm-8.394-2.78a1.58 1.58 0 0 1-1.65 0l-6.96-4.24c.256-.182.57-.288.91-.288h13.75c.34 0 .654.106.91.287l-6.96 4.24z"/>
</svg>
