<svg xmlns="http://www.w3.org/2000/svg" width="23" height="23" viewBox="0 0 23 23">
    <g fill="#317780" fill-rule="nonzero">
        <circle cx="15.154" cy="15.513" r="1"/>
        <path d="M10.67 21.162H3.588a1.795 1.795 0 0 1-1.794-1.794v-7.352c0-.99.805-1.794 1.794-1.794h12.912c.989 0 1.793.805 1.793 1.794v1.793a.897.897 0 1 0 1.794 0v-1.793a3.59 3.59 0 0 0-3.587-3.587h-1.078V5.267c0-2.904-2.413-5.267-5.38-5.267-2.966 0-5.38 2.363-5.38 5.267v3.162H3.587A3.59 3.59 0 0 0 0 12.016v7.352a3.59 3.59 0 0 0 3.587 3.587h7.084a.897.897 0 1 0 0-1.793zM6.455 5.267c0-1.916 1.61-3.474 3.587-3.474 1.978 0 3.587 1.558 3.587 3.474v3.162H6.454V5.267z"/>
        <path d="M22.58 14.604a.897.897 0 0 0-1.25.207l-4.42 6.174a.508.508 0 0 1-.353.176.508.508 0 0 1-.385-.138l-2.856-2.787a.897.897 0 1 0-1.252 1.284l2.861 2.792.008.008a2.312 2.312 0 0 0 1.743.63 2.312 2.312 0 0 0 1.674-.896l4.438-6.199a.897.897 0 0 0-.208-1.25z"/>
        <circle cx="11.747" cy="15.513" r="1"/>
        <circle cx="5.021" cy="15.513" r="1"/>
        <circle cx="8.384" cy="15.513" r="1"/>
    </g>
</svg>
