<svg xmlns="http://www.w3.org/2000/svg" width="20" height="23" viewBox="0 0 20 23">
    <g fill="#317780" fill-rule="nonzero">
        <ellipse cx="15.089" cy="15.543" rx="1" ry="1"/>
        <path d="M19.107 16.262a.896.896 0 0 0 .893-.899V12.04c0-1.982-1.602-3.594-3.571-3.594h-1.074V5.277C15.355 2.367 12.952 0 9.998 0S4.641 2.367 4.641 5.277v3.168h-1.07C1.602 8.445 0 10.057 0 12.04v7.367C0 21.388 1.602 23 3.571 23H16.43C18.398 23 20 21.388 20 19.406c0-.496-.4-.898-.893-.898a.896.896 0 0 0-.893.898c0 .991-.8 1.797-1.785 1.797H3.57a1.793 1.793 0 0 1-1.785-1.797V12.04c0-.99.8-1.797 1.785-1.797H16.43c.984 0 1.785.806 1.785 1.797v3.324c0 .496.4.899.893.899zM13.57 8.445H6.427V5.277c0-1.919 1.602-3.48 3.571-3.48 1.97 0 3.572 1.561 3.572 3.48v3.168z"/>
        <ellipse cx="8.348" cy="15.543" rx="1" ry="1"/>
        <ellipse cx="5" cy="15.543" rx="1" ry="1"/>
        <ellipse cx="11.696" cy="15.543" rx="1" ry="1"/>
    </g>
</svg>
