<svg xmlns="http://www.w3.org/2000/svg" width="20" height="20" viewBox="0 0 20 20">
    <path fill="#317780" fill-rule="nonzero" d="M19.95 17.138a.781.781 0 1 0-1.53.318.816.816 0 0 1-.166.684.794.794 0 0 1-.625.297H2.371a.794.794 0 0 1-.625-.297.816.816 0 0 1-.166-.684c.811-3.894 4.246-6.739 8.213-6.835a5.36 5.36 0 0 0 .415 0 8.594 8.594 0 0 1 6.94 3.815.781.781 0 1 0 1.299-.87 10.162 10.162 0 0 0-5.266-4.001 5.308 5.308 0 0 0 2.132-4.252A5.319 5.319 0 0 0 10 0a5.319 5.319 0 0 0-5.313 5.313c0 1.738.84 3.284 2.135 4.254-1.187.39-2.3.998-3.274 1.8a10.192 10.192 0 0 0-3.497 5.77A2.372 2.372 0 0 0 2.37 20h15.258c.716 0 1.386-.318 1.837-.874.454-.558.63-1.283.483-1.988zM6.25 5.312A3.754 3.754 0 0 1 10 1.563a3.754 3.754 0 0 1 3.75 3.75 3.755 3.755 0 0 1-3.56 3.746 9.903 9.903 0 0 0-.38 0 3.755 3.755 0 0 1-3.56-3.745z"/>
</svg>
