<svg xmlns="http://www.w3.org/2000/svg" width="50" height="50" viewBox="0 0 50 50">
    <g fill="none" fill-rule="nonzero">
        <path fill="#FFE6E2" d="M40.625 50H9.375A9.374 9.374 0 0 1 0 40.625V9.375A9.374 9.374 0 0 1 9.375 0h31.25A9.374 9.374 0 0 1 50 9.375v31.25A9.374 9.374 0 0 1 40.625 50z"/>
        <path fill="#FC573B" d="M36.42 27.787l-.005-.004-1.6-1.472c.054-.444.082-.883.082-1.311 0-.428-.028-.867-.083-1.311l1.606-1.476c.53-.499.652-1.291.293-1.933l-1.768-3.057a1.568 1.568 0 0 0-1.83-.71l-2.077.656a9.479 9.479 0 0 0-2.266-1.316l-.48-2.134a1.57 1.57 0 0 0-1.52-1.219H23.23c-.724 0-1.361.512-1.519 1.219l-.481 2.136c-.8.325-1.56.765-2.266 1.315l-2.081-.656c-.702-.217-1.474.08-1.824.705l-1.775 3.068a1.58 1.58 0 0 0 .3 1.93l1.602 1.472c-.053.444-.081.883-.081 1.311 0 .428.028.867.082 1.311l-1.606 1.476a1.582 1.582 0 0 0-.292 1.932l1.767 3.056c.355.631 1.122.93 1.83.71l2.078-.655c.705.55 1.466.99 2.266 1.315l.48 2.135a1.57 1.57 0 0 0 1.52 1.22h3.542c.723 0 1.36-.512 1.519-1.219l.481-2.136c.8-.325 1.56-.765 2.266-1.315l2.08.656c.704.22 1.474-.08 1.824-.705l1.775-3.068a1.582 1.582 0 0 0-.297-1.926zM25 30.207A5.214 5.214 0 0 1 19.792 25 5.214 5.214 0 0 1 25 19.792 5.214 5.214 0 0 1 30.208 25 5.214 5.214 0 0 1 25 30.208z"/>
    </g>
</svg>
