<svg width="202" height="89" viewBox="0 0 202 89" fill="none" xmlns="http://www.w3.org/2000/svg">
<circle cx="85.5" cy="2.5" r="2.5" transform="rotate(90 85.5 2.5)" fill="white"/>
<circle cx="113.5" cy="2.50001" r="2.5" transform="rotate(90 113.5 2.50001)" fill="white"/>
<circle cx="57.5" cy="30.5" r="2.5" transform="rotate(90 57.5 30.5)" fill="white"/>
<circle cx="85.5" cy="30.5" r="2.5" transform="rotate(90 85.5 30.5)" fill="white"/>
<circle cx="113.5" cy="30.5" r="2.5" transform="rotate(90 113.5 30.5)" fill="white"/>
<circle cx="85.5" cy="58.5" r="2.5" transform="rotate(90 85.5 58.5)" fill="white"/>
<circle cx="113.5" cy="58.5" r="2.5" transform="rotate(90 113.5 58.5)" fill="white"/>
<circle cx="85.5" cy="86.5" r="2.5" transform="rotate(90 85.5 86.5)" fill="white"/>
<circle cx="113.5" cy="86.5" r="2.5" transform="rotate(90 113.5 86.5)" fill="white"/>
<circle cx="2.5" cy="29.5" r="1.5" transform="rotate(90 2.5 29.5)" fill="white"/>
<circle cx="29.5" cy="58.5" r="2.5" transform="rotate(90 29.5 58.5)" fill="white"/>
<circle cx="30.5" cy="85.5" r="1.5" transform="rotate(90 30.5 85.5)" fill="white"/>
<circle cx="29.5" cy="30.5" r="2.5" transform="rotate(90 29.5 30.5)" fill="white"/>
<circle cx="57.5" cy="58.5" r="2.5" transform="rotate(90 57.5 58.5)" fill="white"/>
<circle cx="58.5" cy="85.5" r="1.5" transform="rotate(90 58.5 85.5)" fill="white"/>
<circle cx="2" cy="58" r="2" transform="rotate(90 2 58)" fill="white"/>
<circle cx="2.5" cy="85.5" r="1.5" transform="rotate(90 2.5 85.5)" fill="white"/>
<circle cx="201" cy="29" r="1" transform="rotate(90 201 29)" fill="white"/>
<circle cx="144" cy="30" r="2" transform="rotate(90 144 30)" fill="white"/>
<circle cx="172.5" cy="29.5" r="1.5" transform="rotate(90 172.5 29.5)" fill="white"/>
</svg>
