<svg width="90" height="202" viewBox="0 0 90 202" fill="none" xmlns="http://www.w3.org/2000/svg">
<circle cx="3" cy="116.5" r="2.5" fill="#0A1247"/>
<circle cx="3" cy="88.5" r="2.5" fill="#0A1247"/>
<circle cx="31" cy="144.5" r="2.5" fill="#0A1247"/>
<circle cx="31" cy="116.5" r="2.5" fill="#0A1247"/>
<circle cx="31" cy="88.5" r="2.5" fill="#0A1247"/>
<circle cx="59" cy="116.5" r="2.5" fill="#0A1247"/>
<circle cx="59" cy="88.5" r="2.5" fill="#0A1247"/>
<circle cx="87" cy="116.5" r="2.5" fill="#0A1247"/>
<circle cx="87" cy="88.5" r="2.5" fill="#0A1247"/>
<circle cx="30" cy="199.5" r="1.5" fill="#0A1247"/>
<circle cx="59" cy="172.5" r="2.5" fill="#0A1247"/>
<circle cx="86" cy="171.5" r="1.5" fill="#0A1247"/>
<circle cx="31" cy="172.5" r="2.5" fill="#0A1247"/>
<circle cx="59" cy="144.5" r="2.5" fill="#0A1247"/>
<circle cx="86" cy="143.5" r="1.5" fill="#0A1247"/>
<circle cx="58.5" cy="200" r="2" fill="#0A1247"/>
<circle cx="86" cy="199.5" r="1.5" fill="#0A1247"/>
<circle cx="29.5" cy="1" r="1" fill="#0A1247"/>
<circle cx="30.5" cy="58" r="2" fill="#0A1247"/>
<circle cx="30" cy="29.5" r="1.5" fill="#0A1247"/>
</svg>
