<svg width="117" height="88" viewBox="0 0 117 88" fill="none" xmlns="http://www.w3.org/2000/svg">
<circle cx="86.5" cy="2" r="2" transform="rotate(90 86.5 2)" fill="#6AD7FA"/>
<circle cx="115" cy="1.5" r="1.5" transform="rotate(90 115 1.5)" fill="#6AD7FA"/>
<circle cx="58.5" cy="30" r="2" transform="rotate(90 58.5 30)" fill="#6AD7FA"/>
<circle cx="86" cy="30.5" r="2.5" transform="rotate(90 86 30.5)" fill="#6AD7FA"/>
<circle cx="114" cy="30.5" r="2.5" transform="rotate(90 114 30.5)" fill="#6AD7FA"/>
<circle cx="86" cy="58.5" r="2.5" transform="rotate(90 86 58.5)" fill="#6AD7FA"/>
<circle cx="114" cy="58.5" r="2.5" transform="rotate(90 114 58.5)" fill="#6AD7FA"/>
<circle cx="3.4538" cy="30.0487" r="2" transform="rotate(91.8864 3.4538 30.0487)" fill="#6AD7FA"/>
<circle cx="30" cy="58.5" r="2.5" transform="rotate(90 30 58.5)" fill="#6AD7FA"/>
<circle cx="30" cy="30.5" r="2.5" transform="rotate(90 30 30.5)" fill="#6AD7FA"/>
<circle cx="59" cy="57.5" r="1.5" transform="rotate(90 59 57.5)" fill="#6AD7FA"/>
<circle cx="2.53291" cy="58.0334" r="2" transform="rotate(91.8864 2.53291 58.0334)" fill="#6AD7FA"/>
<circle cx="2.12722" cy="85.535" r="1.5" transform="rotate(91.8864 2.12722 85.535)" fill="#6AD7FA"/>
</svg>
