<svg xmlns="http://www.w3.org/2000/svg" width="50" height="50" viewBox="0 0 50 50">
    <g fill="none" fill-rule="nonzero">
        <path fill="#DDF8FF" d="M40.625 50H9.375A9.374 9.374 0 0 1 0 40.625V9.375A9.374 9.374 0 0 1 9.375 0h31.25A9.374 9.374 0 0 1 50 9.375v31.25A9.374 9.374 0 0 1 40.625 50z"/>
        <path fill="#69C1D8" d="M37.434 22.073a1.328 1.328 0 0 0-1.142-.912l-7.217-.656-2.853-6.677a1.327 1.327 0 0 0-2.444 0l-2.853 6.677-7.217.656c-.53.048-.978.406-1.142.912a1.332 1.332 0 0 0 .387 1.413l5.456 4.783-1.61 7.084a1.328 1.328 0 0 0 1.978 1.436L25 33.069l6.222 3.72a1.328 1.328 0 0 0 1.977-1.436l-1.61-7.084 5.456-4.785c.402-.35.553-.904.39-1.41z"/>
    </g>
</svg>
