<svg xmlns="http://www.w3.org/2000/svg" width="50" height="50" viewBox="0 0 50 50">
    <g fill="none" fill-rule="nonzero">
        <path fill="#FFF9DD" d="M40.625 50H9.375A9.374 9.374 0 0 1 0 40.625V9.375A9.374 9.374 0 0 1 9.375 0h31.25A9.374 9.374 0 0 1 50 9.375v31.25A9.374 9.374 0 0 1 40.625 50z"/>
        <path fill="#FFE777" d="M22.136 12.5h-7.813a1.824 1.824 0 0 0-1.823 1.823v4.688c0 1.005.817 1.823 1.823 1.823h7.813a1.825 1.825 0 0 0 1.823-1.823v-4.688a1.826 1.826 0 0 0-1.823-1.823z"/>
        <path fill="#FFD200" d="M22.136 22.917h-7.813A1.824 1.824 0 0 0 12.5 24.74v10.938c0 1.006.817 1.823 1.823 1.823h7.813a1.825 1.825 0 0 0 1.823-1.823V24.739a1.826 1.826 0 0 0-1.823-1.822z"/>
        <path fill="#FFE777" d="M35.677 29.167h-7.813a1.825 1.825 0 0 0-1.823 1.824v4.687c0 1.005.817 1.824 1.823 1.824h7.813a1.827 1.827 0 0 0 1.823-1.825v-4.688a1.824 1.824 0 0 0-1.823-1.822z"/>
        <path fill="#FFD200" d="M35.677 12.5h-7.813a1.825 1.825 0 0 0-1.823 1.823v10.938c0 1.005.817 1.823 1.823 1.823h7.813a1.825 1.825 0 0 0 1.823-1.823V14.323a1.824 1.824 0 0 0-1.823-1.823z"/>
    </g>
</svg>
