<svg xmlns="http://www.w3.org/2000/svg" width="50" height="50" viewBox="0 0 50 50">
    <g fill="none" fill-rule="nonzero">
        <path fill="#D4FFF4" d="M40.625 50H9.375A9.374 9.374 0 0 1 0 40.625V9.375A9.374 9.374 0 0 1 9.375 0h31.25A9.374 9.374 0 0 1 50 9.375v31.25A9.374 9.374 0 0 1 40.625 50z"/>
        <path fill="#7ED5BF" d="M17.708 25v11.364c0 .625-.469 1.136-1.042 1.136-.572 0-1.041-.51-1.041-1.136V25h2.083z"/>
        <path fill="#7ED5BF" d="M34.375 14.323v9.896c0 1.003-.82 1.823-1.823 1.823H16.667A1.042 1.042 0 0 1 15.625 25V13.542c0-.573.469-1.042 1.042-1.042h15.886c1.002 0 1.822.82 1.822 1.823z"/>
    </g>
</svg>
